# xmcd
#
# Track frame offsets:
#        187
#        20540
#        34655
#        47417
#        61987
#        78525
#        94760
#        110327
#        128082
#        145627
#
# Disc length: 2169 seconds
#
# Revision: 2
# Processed by: cddbd v1.5.1PL2 Copyright (c) Steve Scherf et al.
# Submitted via: ExactAudioCopy v0.95b3
#
DISCID=7808770a
DTITLE=Bob Marley and The Wailers - Uprising
DYEAR=1980
DGENRE=Reggae
TTITLE0=Coming In From The Cold
TTITLE1=Real Situation
TTITLE2=Bad Card
TTITLE3=We And Them
TTITLE4=Work
TTITLE5=Zion Train
TTITLE6=Pimper's Paradise
TTITLE7=Could You Be Loved
TTITLE8=Forever Loving Jah
TTITLE9=Redemption Song
EXTD=
EXTT0=
EXTT1=
EXTT2=
EXTT3=
EXTT4=
EXTT5=
EXTT6=
EXTT7=
EXTT8=
EXTT9=
PLAYORDER=
